<svg width="18" height="18" viewBox="0 0 18 18" fill="none" xmlns="http://www.w3.org/2000/svg">
<path d="M15.8777 1.54503C15.3401 1.45243 14.7957 1.40477 14.2502 1.40253C12.389 1.401 10.5665 1.93471 9.00019 2.94003C7.4298 1.94791 5.60767 1.4273 3.75019 1.44003C3.20467 1.44227 2.66029 1.48993 2.12269 1.58253C1.94659 1.61289 1.78712 1.70512 1.673 1.84262C1.55887 1.98013 1.49759 2.15386 1.50019 2.33253V11.3325C1.49858 11.4427 1.52128 11.5519 1.56667 11.6524C1.61207 11.7528 1.67904 11.842 1.76282 11.9136C1.8466 11.9852 1.94513 12.0375 2.0514 12.0667C2.15768 12.0959 2.26908 12.1013 2.37769 12.0825C3.45245 11.8964 4.55359 11.9273 5.61623 12.1733C6.67888 12.4194 7.68155 12.8755 8.56519 13.515L8.65519 13.5675H8.73768C8.82086 13.6022 8.91008 13.62 9.00019 13.62C9.09029 13.62 9.17951 13.6022 9.26269 13.5675H9.34519L9.43518 13.515C10.3127 12.8613 11.3124 12.3903 12.3753 12.13C13.4381 11.8698 14.5424 11.8256 15.6227 12C15.7313 12.0188 15.8427 12.0134 15.949 11.9842C16.0552 11.955 16.1538 11.9027 16.2376 11.8311C16.3213 11.7595 16.3883 11.6703 16.4337 11.5699C16.4791 11.4694 16.5018 11.3602 16.5002 11.25V2.25003C16.4924 2.07915 16.4264 1.91606 16.3132 1.78783C16.1999 1.6596 16.0463 1.57393 15.8777 1.54503ZM8.25019 11.5125C6.8626 10.7825 5.31807 10.4016 3.75019 10.4025H3.00019V2.90253C3.24998 2.88813 3.50039 2.88813 3.75019 2.90253C5.35022 2.90076 6.91535 3.3703 8.25019 4.25253V11.5125ZM15.0002 10.4325H14.2502C12.6823 10.4316 11.1378 10.8125 9.75019 11.5425V4.25253C11.085 3.3703 12.6501 2.90076 14.2502 2.90253C14.5 2.88813 14.7504 2.88813 15.0002 2.90253V10.4325ZM15.8777 13.545C15.3401 13.4524 14.7957 13.4048 14.2502 13.4025C12.389 13.401 10.5665 13.9347 9.00019 14.94C7.43382 13.9347 5.61141 13.401 3.75019 13.4025C3.20467 13.4048 2.66029 13.4524 2.12269 13.545C2.02506 13.5605 1.93145 13.5952 1.84726 13.647C1.76306 13.6988 1.68994 13.7667 1.63209 13.8468C1.57423 13.927 1.5328 14.0178 1.51016 14.114C1.48753 14.2102 1.48414 14.31 1.50019 14.4075C1.5383 14.6023 1.65205 14.774 1.81653 14.8851C1.981 14.9961 2.18279 15.0375 2.37769 15C3.45245 14.8139 4.55359 14.8448 5.61623 15.0908C6.67888 15.3369 7.68155 15.793 8.56519 16.4325C8.69221 16.523 8.84426 16.5716 9.00019 16.5716C9.15611 16.5716 9.30816 16.523 9.43518 16.4325C10.3188 15.793 11.3215 15.3369 12.3841 15.0908C13.4468 14.8448 14.5479 14.8139 15.6227 15C15.8176 15.0375 16.0194 14.9961 16.1838 14.8851C16.3483 14.774 16.4621 14.6023 16.5002 14.4075C16.5162 14.31 16.5128 14.2102 16.4902 14.114C16.4676 14.0178 16.4261 13.927 16.3683 13.8468C16.3104 13.7667 16.2373 13.6988 16.1531 13.647C16.0689 13.5952 15.9753 13.5605 15.8777 13.545Z" fill="#EAF4F4"/>
</svg>
