<svg width="16" height="17" viewBox="0 0 16 17" fill="none" xmlns="http://www.w3.org/2000/svg">
<g clip-path="url(#clip0_27_715)">
<path d="M8 0.75C12.2812 0.75 15.75 4.21875 15.75 8.5C15.75 12.7812 12.2812 16.25 8 16.25C3.71875 16.25 0.25 12.7812 0.25 8.5C0.25 4.21875 3.71875 0.75 8 0.75ZM11.5594 7.96875L7.325 3.73438C7.03125 3.44062 6.55625 3.44062 6.26562 3.73438L5.73438 4.26562C5.44063 4.55938 5.44063 5.03437 5.73438 5.325L8.90938 8.5L5.73438 11.675C5.44063 11.9688 5.44063 12.4438 5.73438 12.7344L6.26562 13.2656C6.55937 13.5594 7.03437 13.5594 7.325 13.2656L11.5594 9.03125C11.8531 8.7375 11.8531 8.2625 11.5594 7.96875Z" fill="#CDE7BE"/>
</g>
<defs>
<clipPath id="clip0_27_715">
<rect width="16" height="16" fill="white" transform="translate(0 0.5)"/>
</clipPath>
</defs>
</svg>
