<svg width="25" height="24" viewBox="0 0 25 24" fill="none" xmlns="http://www.w3.org/2000/svg">
<path d="M20.5 13.18V11C20.5 8.87827 19.6571 6.84344 18.1569 5.34315C16.6566 3.84285 14.6217 3 12.5 3C10.3783 3 8.34344 3.84285 6.84315 5.34315C5.34285 6.84344 4.5 8.87827 4.5 11V13.18C3.91645 13.3863 3.411 13.7681 3.05294 14.2729C2.69488 14.7778 2.50174 15.3811 2.5 16V18C2.5 18.7956 2.81607 19.5587 3.37868 20.1213C3.94129 20.6839 4.70435 21 5.5 21H8.5C8.76522 21 9.01957 20.8946 9.20711 20.7071C9.39464 20.5196 9.5 20.2652 9.5 20V14C9.5 13.7348 9.39464 13.4804 9.20711 13.2929C9.01957 13.1054 8.76522 13 8.5 13H6.5V11C6.5 9.4087 7.13214 7.88258 8.25736 6.75736C9.38258 5.63214 10.9087 5 12.5 5C14.0913 5 15.6174 5.63214 16.7426 6.75736C17.8679 7.88258 18.5 9.4087 18.5 11V13H16.5C16.2348 13 15.9804 13.1054 15.7929 13.2929C15.6054 13.4804 15.5 13.7348 15.5 14V20C15.5 20.2652 15.6054 20.5196 15.7929 20.7071C15.9804 20.8946 16.2348 21 16.5 21H19.5C20.2956 21 21.0587 20.6839 21.6213 20.1213C22.1839 19.5587 22.5 18.7956 22.5 18V16C22.4983 15.3811 22.3051 14.7778 21.9471 14.2729C21.589 13.7681 21.0835 13.3863 20.5 13.18ZM7.5 15V19H5.5C5.23478 19 4.98043 18.8946 4.79289 18.7071C4.60536 18.5196 4.5 18.2652 4.5 18V16C4.5 15.7348 4.60536 15.4804 4.79289 15.2929C4.98043 15.1054 5.23478 15 5.5 15H7.5ZM20.5 18C20.5 18.2652 20.3946 18.5196 20.2071 18.7071C20.0196 18.8946 19.7652 19 19.5 19H17.5V15H19.5C19.7652 15 20.0196 15.1054 20.2071 15.2929C20.3946 15.4804 20.5 15.7348 20.5 16V18Z" fill="#EAF4F4"/>
</svg>
