<svg width="21" height="20" viewBox="0 0 21 20" fill="none" xmlns="http://www.w3.org/2000/svg">
<path d="M14.7423 2.34977C13.9758 1.71943 13.0784 1.26813 12.1153 1.02881C11.1523 0.789488 10.1479 0.76818 9.1756 0.966439C7.88092 1.22796 6.69309 1.86817 5.76284 2.80584C4.83258 3.74351 4.20183 4.93638 3.9506 6.23311C3.76714 7.20537 3.80048 8.20615 4.04824 9.16405C4.296 10.122 4.75207 11.0134 5.38394 11.7748C5.97034 12.4365 6.30646 13.2827 6.33394 14.1664V16.6664C6.33394 17.3295 6.59733 17.9654 7.06617 18.4342C7.53501 18.903 8.17089 19.1664 8.83394 19.1664H12.1673C12.8303 19.1664 13.4662 18.903 13.935 18.4342C14.4039 17.9654 14.6673 17.3295 14.6673 16.6664V14.3248C14.6952 13.3491 15.0537 12.4118 15.6839 11.6664C16.7882 10.3004 17.3087 8.55379 17.1324 6.80613C16.9561 5.05847 16.0971 3.45101 14.7423 2.33311V2.34977ZM13.0006 16.6664C13.0006 16.8875 12.9128 17.0994 12.7565 17.2557C12.6002 17.412 12.3883 17.4998 12.1673 17.4998H8.83394C8.61292 17.4998 8.40096 17.412 8.24468 17.2557C8.0884 17.0994 8.0006 16.8875 8.0006 16.6664V15.8331H13.0006V16.6664ZM14.3923 10.6331C13.5544 11.6269 13.0655 12.8681 13.0006 14.1664H11.3339V11.6664C11.3339 11.4454 11.2461 11.2335 11.0899 11.0772C10.9336 10.9209 10.7216 10.8331 10.5006 10.8331C10.2796 10.8331 10.0676 10.9209 9.91135 11.0772C9.75507 11.2335 9.66727 11.4454 9.66727 11.6664V14.1664H8.0006C7.97862 12.8899 7.50639 11.6621 6.66727 10.6998C6.11364 10.0364 5.74135 9.24096 5.58669 8.39089C5.43204 7.54083 5.50031 6.6652 5.78484 5.84938C6.06937 5.03356 6.56045 4.30539 7.2102 3.73588C7.85995 3.16636 8.6462 2.77494 9.49227 2.59977C10.2194 2.45006 10.9707 2.46414 11.6917 2.641C12.4127 2.81785 13.0853 3.15304 13.6606 3.62223C14.236 4.09142 14.6996 4.68284 15.0178 5.35354C15.3361 6.02424 15.501 6.75739 15.5006 7.49977C15.5068 8.64132 15.1148 9.74933 14.3923 10.6331Z" fill="#EAF4F4"/>
</svg>
