<svg width="64" height="64" viewBox="0 0 64 64" fill="none" xmlns="http://www.w3.org/2000/svg">
<g clip-path="url(#clip0_140_167)">
<path d="M9.37591 54.624C6.31959 51.6721 3.88176 48.1411 2.20467 44.2369C0.527579 40.3328 -0.35518 36.1338 -0.392102 31.8848C-0.429024 27.6359 0.38063 23.4222 1.98962 19.4895C3.59861 15.5568 5.97471 11.9839 8.97927 8.97936C11.9838 5.9748 15.5567 3.5987 19.4894 1.98971C23.4221 0.380721 27.6358 -0.428933 31.8848 -0.392011C36.1337 -0.355089 40.3327 0.527671 44.2369 2.20476C48.141 3.88185 51.672 6.31968 54.6239 9.376C60.453 15.4113 63.6784 23.4945 63.6055 31.8848C63.5326 40.2751 60.1672 48.3011 54.2341 54.2342C48.301 60.1673 40.275 63.5327 31.8848 63.6056C23.4945 63.6785 15.4112 60.4531 9.37591 54.624ZM22.3999 19.2V44.8H28.7999V19.2H22.3999ZM35.1999 19.2V44.8H41.5999V19.2H35.1999Z" fill="#CDE7BE"/>
</g>
<defs>
<clipPath id="clip0_140_167">
<rect width="64" height="64" rx="32" fill="white"/>
</clipPath>
</defs>
</svg>
