<svg width="64" height="64" viewBox="0 0 64 64" fill="none" xmlns="http://www.w3.org/2000/svg">
<rect width="64" height="64" rx="32" fill="#CDE7BE"/>
<path d="M44.9004 26.9991L28.8004 17.7658C27.9292 17.2627 26.9404 16.9992 25.9343 17.002C24.9283 17.0047 23.941 17.2737 23.0726 17.7815C22.2042 18.2894 21.4856 19.018 20.9899 19.8934C20.4943 20.7689 20.2391 21.7599 20.2504 22.7658V41.2991C20.2504 42.8109 20.8509 44.2607 21.9198 45.3297C22.9888 46.3986 24.4386 46.9991 25.9504 46.9991C26.9511 46.9975 27.9338 46.7331 28.8004 46.2325L44.9004 36.9991C45.7655 36.4985 46.4837 35.7791 46.983 34.9132C47.4823 34.0473 47.7452 33.0654 47.7452 32.0658C47.7452 31.0663 47.4823 30.0843 46.983 29.2184C46.4837 28.3525 45.7655 27.6332 44.9004 27.1325V26.9991ZM43.2337 33.9825L27.1337 43.3491C26.7728 43.5537 26.3651 43.6612 25.9504 43.6612C25.5356 43.6612 25.1279 43.5537 24.767 43.3491C24.4072 43.1414 24.1084 42.8426 23.9007 42.4827C23.6929 42.1229 23.5836 41.7147 23.5837 41.2991V22.6991C23.5836 22.2836 23.6929 21.8754 23.9007 21.5156C24.1084 21.1557 24.4072 20.8569 24.767 20.6491C25.1294 20.4477 25.5359 20.339 25.9504 20.3325C26.3646 20.341 26.7706 20.4496 27.1337 20.6491L43.2337 29.9491C43.5937 30.1568 43.8926 30.4556 44.1005 30.8155C44.3083 31.1753 44.4177 31.5836 44.4177 31.9991C44.4177 32.4147 44.3083 32.823 44.1005 33.1828C43.8926 33.5427 43.5937 33.8415 43.2337 34.0491V33.9825Z" fill="#232538"/>
</svg>
