<svg width="25" height="20" viewBox="0 0 25 20" fill="none" xmlns="http://www.w3.org/2000/svg">
<path opacity="0.1" d="M10.6502 0V5.26316C10.6502 6.8616 10.37 8.56725 9.80942 10.3801C9.26756 12.1735 8.46413 13.9181 7.3991 15.614C6.35277 17.2904 5.08221 18.7524 3.58744 20L0 16.9591C1.17713 15.2047 2.19544 13.3821 3.05493 11.4912C3.93311 9.58089 4.3722 7.54386 4.3722 5.38012V0H10.6502ZM25 0V5.26316C25 6.8616 24.7197 8.56725 24.1592 10.3801C23.6173 12.1735 22.8139 13.9181 21.7489 15.614C20.7025 17.2904 19.432 18.7524 17.9372 20L14.3498 16.9591C15.5269 15.2047 16.5452 13.3821 17.4047 11.4912C18.2829 9.58089 18.722 7.54386 18.722 5.38012V0H25Z" fill="#EAF4F4"/>
</svg>
