<svg width="24" height="24" viewBox="0 0 24 24" fill="none" xmlns="http://www.w3.org/2000/svg">
<path d="M12.0142 4.12576C15.0239 4.08076 17.8402 5.25301 19.6582 7.50076H16.6874C16.4388 7.50076 16.2003 7.59953 16.0245 7.77535C15.8487 7.95116 15.7499 8.18962 15.7499 8.43826C15.7499 8.6869 15.8487 8.92536 16.0245 9.10117C16.2003 9.27699 16.4388 9.37576 16.6874 9.37576H21.5624C22.0799 9.37576 22.4999 8.95576 22.4999 8.43826V3.18826C22.4999 2.93962 22.4012 2.70116 22.2254 2.52535C22.0495 2.34953 21.8111 2.25076 21.5624 2.25076C21.3138 2.25076 21.0753 2.34953 20.8995 2.52535C20.7237 2.70116 20.6249 2.93962 20.6249 3.18826V5.75551C18.4124 3.38551 15.2459 2.20276 11.9864 2.25151C7.52994 2.31751 3.96294 4.70251 1.64769 8.30701C1.57967 8.41062 1.53287 8.52668 1.51 8.64849C1.48713 8.7703 1.48863 8.89544 1.51443 9.01666C1.54023 9.13789 1.58981 9.2528 1.66031 9.35473C1.7308 9.45667 1.82081 9.54362 1.92512 9.61056C2.02943 9.67749 2.14598 9.72307 2.26802 9.74467C2.39007 9.76627 2.51518 9.76345 2.63613 9.73639C2.75708 9.70932 2.87146 9.65854 2.97266 9.58698C3.07385 9.51543 3.15986 9.42452 3.22569 9.31951C5.26044 6.15076 8.28894 4.18201 12.0134 4.12576H12.0142ZM15.8249 11.2508C14.3834 11.2508 13.3402 11.9108 12.7124 12.9743C12.1259 13.9658 11.9354 15.2415 11.9354 16.5C11.9354 17.76 12.1259 19.035 12.7117 20.0265C13.3402 21.09 14.3849 21.75 15.8249 21.75C17.2672 21.75 18.3104 21.09 18.9389 20.0265C19.5247 19.035 19.7152 17.7593 19.7152 16.5C19.7152 15.2415 19.5247 13.9658 18.9389 12.9743C18.3104 11.9115 17.2664 11.2508 15.8249 11.2508ZM13.8104 16.5008C13.8104 15.378 13.9897 14.4975 14.3257 13.9283C14.6204 13.4303 15.0532 13.1258 15.8257 13.1258C16.5982 13.1258 17.0302 13.4303 17.3249 13.9283C17.6609 14.4975 17.8402 15.378 17.8402 16.5008C17.8402 17.6228 17.6609 18.5033 17.3249 19.0733C17.0302 19.5705 16.5974 19.8758 15.8249 19.8758C15.0524 19.8758 14.6197 19.5705 14.3257 19.0733C13.9897 18.5033 13.8104 17.6228 13.8104 16.5008ZM9.93744 12.1883C9.93735 12.0039 9.88293 11.8237 9.78099 11.6702C9.67905 11.5166 9.5341 11.3965 9.36427 11.3249C9.19445 11.2533 9.00727 11.2333 8.82615 11.2675C8.64503 11.3016 8.478 11.3884 8.34594 11.517C8.23044 11.6295 8.13219 11.727 8.04219 11.817C7.83294 12.0263 7.66719 12.192 7.43469 12.3885C7.11744 12.6563 6.67719 12.9758 5.89269 13.4468C5.78711 13.5101 5.69503 13.5936 5.62172 13.6925C5.54841 13.7914 5.4953 13.9038 5.46543 14.0232C5.43555 14.1427 5.42949 14.2668 5.44759 14.3886C5.4657 14.5104 5.50761 14.6274 5.57094 14.733C5.63427 14.8386 5.71778 14.9307 5.81669 15.004C5.91561 15.0773 6.02799 15.1304 6.14743 15.1603C6.26687 15.1902 6.39103 15.1962 6.51281 15.1781C6.63459 15.16 6.75161 15.1181 6.85719 15.0548C7.26952 14.8107 7.67161 14.5497 8.06244 14.2725V20.625C8.06244 20.8736 8.16121 21.1121 8.33703 21.2879C8.51285 21.4637 8.7513 21.5625 8.99994 21.5625C9.24858 21.5625 9.48704 21.4637 9.66286 21.2879C9.83867 21.1121 9.93744 20.8736 9.93744 20.625V12.1875V12.1883Z" fill="#EAF4F4"/>
</svg>
