<svg width="18" height="18" viewBox="0 0 18 18" fill="none" xmlns="http://www.w3.org/2000/svg">
<path d="M6.3512 6.29623L6.3497 6.29698L6.34745 6.29848L6.3512 6.29623ZM13.8167 6.15598C13.7645 6.10564 13.7066 6.06159 13.6442 6.02473C13.5558 5.9727 13.4577 5.93934 13.3559 5.92673C13.2541 5.91412 13.1508 5.92252 13.0524 5.95141C12.954 5.9803 12.8626 6.02907 12.7838 6.0947C12.7049 6.16033 12.6404 6.24143 12.5942 6.33298C12.3359 6.84217 11.9796 7.29534 11.5457 7.66648C11.6122 7.29264 11.6459 6.91369 11.6462 6.53398C11.6476 5.37909 11.343 4.24444 10.7633 3.24555C10.1837 2.24667 9.34964 1.41923 8.3462 0.847483C8.23562 0.784654 8.11088 0.750977 7.98371 0.749616C7.85654 0.748255 7.73111 0.779255 7.61921 0.839703C7.50732 0.900151 7.41263 0.98806 7.34406 1.09517C7.27548 1.20227 7.23527 1.32506 7.2272 1.45198C7.18521 2.16306 6.9993 2.85821 6.68075 3.49532C6.36219 4.13243 5.91761 4.69825 5.37395 5.15848L5.20145 5.29873C4.63266 5.68142 4.12921 6.15321 3.71045 6.69598C3.05965 7.51582 2.60884 8.47602 2.39376 9.50042C2.17868 10.5248 2.20525 11.5852 2.47137 12.5976C2.73748 13.6099 3.23582 14.5464 3.92686 15.3326C4.61789 16.1188 5.48262 16.7332 6.45245 17.127C6.56631 17.1733 6.68982 17.191 6.81211 17.1784C6.93439 17.1658 7.05171 17.1233 7.15372 17.0547C7.25573 16.9861 7.33932 16.8935 7.39712 16.785C7.45493 16.6765 7.48517 16.5554 7.4852 16.4325C7.48457 16.353 7.47193 16.2741 7.4477 16.1985C7.27989 15.5678 7.23156 14.9112 7.3052 14.2627C8.01505 15.6012 9.15436 16.662 10.5399 17.2747C10.709 17.3503 10.9001 17.3605 11.0762 17.3032C12.1708 16.9499 13.1569 16.3225 13.9408 15.4807C14.7246 14.639 15.2803 13.6108 15.5549 12.4938C15.8295 11.3768 15.8139 10.2082 15.5097 9.09893C15.2055 7.98966 14.6227 6.9766 13.8167 6.15598ZM10.8879 15.7792C10.2342 15.448 9.65742 14.9828 9.19522 14.414C8.73301 13.8452 8.39569 13.1855 8.2052 12.4777C8.14695 12.2394 8.10189 11.998 8.0702 11.7547C8.04885 11.5998 7.97962 11.4554 7.87217 11.3418C7.76472 11.2282 7.62444 11.151 7.47095 11.121C7.42375 11.1118 7.37577 11.1073 7.3277 11.1075C7.19592 11.1074 7.06644 11.1419 6.95228 11.2078C6.83813 11.2736 6.74333 11.3684 6.67745 11.4825C6.05528 12.5559 5.74248 13.7807 5.7737 15.021C5.22631 14.5955 4.76883 14.0656 4.42776 13.462C4.08669 12.8584 3.86882 12.1931 3.78678 11.5047C3.70473 10.8163 3.76015 10.1184 3.94982 9.45159C4.13949 8.78475 4.45963 8.16218 4.8917 7.61998C5.21976 7.19386 5.61552 6.82446 6.0632 6.52648C6.08279 6.51392 6.10157 6.50014 6.11945 6.48523C6.11945 6.48523 6.34145 6.30148 6.34895 6.29773C7.41785 5.39402 8.17817 4.17933 8.52395 2.82298C9.34102 3.57851 9.88577 4.58268 10.0736 5.67956C10.2614 6.77644 10.0818 7.90464 9.5627 8.88898C9.49399 9.02037 9.46577 9.16916 9.4816 9.31658C9.49743 9.46399 9.55659 9.60341 9.65161 9.71722C9.74664 9.83103 9.87326 9.91411 10.0155 9.95599C10.1577 9.99786 10.3092 9.99664 10.4507 9.95248C11.5995 9.5922 12.6103 8.88863 13.3472 7.93648C13.7902 8.59066 14.0799 9.33639 14.1946 10.1181C14.3093 10.8998 14.2461 11.6973 14.0097 12.4512C13.7733 13.2051 13.3698 13.8959 12.8293 14.4721C12.2888 15.0483 11.6252 15.4952 10.8879 15.7792Z" fill="#313333"/>
</svg>
